<svg xmlns="http://www.w3.org/2000/svg" viewBox="0 0 136.77 136.91"><g id="Layer_2" data-name="Layer 2"><g id="Layer_1-2" data-name="Layer 1"><path d="M79.4,105.24l-3.63-3.7c-3.17,4.07-6.37,8.14-9.51,12.25-4.47,5.84-10.09,10.07-17.3,11.77-12,2.84-22.39-.28-30.81-9.33C8,105.35,7.74,87.61,17.5,76.05l3.39,2.78c-1.63,3.73-3.57,7.06-4.55,10.65-4,14.68,6.35,29.82,21.45,31.66,9,1.1,16.71-1.67,22.64-8.56,4.08-4.72,7.77-9.76,11.75-14.8l-3.85-3.36c-.77,1-1.73,2.17-2.67,3.37-3.09,3.93-6,8-9.29,11.77-6,7-15.74,8.74-24.25,4.6A20.51,20.51,0,0,1,20.94,92.07a21.06,21.06,0,0,1,8.12-13c4.52-3.53,9.06-7,13.69-10.6l-3.59-3.34-1.48,1.36c-6.68,6.22-15.11,6.36-21.86.23-2.49-2.26-4.76-4.78-7.28-7.34L12.34,56l6.13,6.11c5.42,5.41,12.13,5.05,16.93-.85-1.2-1.24-2.4-2.47-3.72-3.81l-6.2,4.79-3.15-4c.52-.45,1-.88,1.45-1.24,10.5-7.8,19.08-17.64,28.15-26.91C56.75,25.24,60.3,19.1,65,14,75.35,2.5,88.43-2.13,103.68.91,134.21,7,147.05,43.2,127.41,67.34c-.24.28-.51.54-.85.89l-3.65-3.17c1.56-2.47,3.26-4.72,4.51-7.21,6.21-12.4,5.8-24.75-1.73-36.32S107.17,4.68,93.48,5.35A33.56,33.56,0,0,0,69,17.15c-4.09,4.7-7.81,9.72-11.68,14.59L61,35.45c2.39-3.08,4.79-6.1,7.13-9.17,3.23-4.23,6.54-8.35,11.14-11.25C99,2.58,125.11,16,126.43,39.26A31.09,31.09,0,0,1,119.38,61l-4-3.28a26.5,26.5,0,0,0,5.79-13.95A25.54,25.54,0,0,0,99,15.79c-9.4-1.17-17.11,2-23.14,9.11-3.86,4.58-7.42,9.41-11.2,14.24l3.73,3.53c3.62-4.65,7.16-9.41,10.91-14,5.3-6.49,12.2-9.31,20.46-7.57s13.7,6.88,15.76,15-.3,15.36-6.82,20.86c-4.35,3.66-8.93,7-13.41,10.54-.38.3-.76.62-1.16,1l3.48,3.2a48.28,48.28,0,0,1,4.59-3.61,14.62,14.62,0,0,1,17.46,1.09c3.07,2.51,5.79,5.46,8.63,8.17L124.59,81c-1.87-1.85-4-3.68-5.81-5.8-4.69-5.58-12.55-5.84-17.55.54l3.69,3.86,6.44-4.92c1,1.31,2,2.6,3.11,4-.43.38-.73.69-1.07.94-10.58,7.8-19.16,17.73-28.34,27-4.19,4.23-7.45,9.39-11.17,14.09A41.46,41.46,0,0,1,49.73,136c-23.5,5.21-47-11.71-49.48-35.67A41.12,41.12,0,0,1,8.68,70.41c.3-.39.63-.77,1-1.14a7.21,7.21,0,0,1,.61-.54l3.6,3.12c-1.61,2.55-3.31,4.87-4.63,7.38C-1.66,100,10.35,125.89,33.3,130.8c13.74,2.93,25.49-1.11,34.88-11.44C72.24,114.9,75.72,109.91,79.4,105.24Zm21.23-22.16L54,36.43,36.38,53.89,83,100.54Zm-54.15-11C41.3,76.1,36.21,79.93,31.29,84A15.37,15.37,0,1,0,53,105.57c3.77-4.59,7.33-9.34,11-14a6.24,6.24,0,0,0,.53-.8L61,87.05l-1.56,2c-3.64,4.61-7.14,9.33-11,13.78A9.75,9.75,0,0,1,36,104.62c-6.5-3.82-6.93-12.42-.8-17.32,4.53-3.63,9.16-7.14,13.75-10.71.36-.28.68-.63,1-1ZM87,61.05l3.44,3.78,14.19-11c.49-.39,1-.8,1.43-1.22a15.37,15.37,0,0,0,.53-22.25c-5.85-6-16.33-6.15-21.86.1-4.49,5.08-8.45,10.64-12.68,16l3.65,3.63,1.87-2.34c3.51-4.47,6.9-9,10.56-13.39,3.33-4,8.8-4.55,13.25-1.77A10,10,0,0,1,105,45.09a15.41,15.41,0,0,1-4.07,5C96.36,53.89,91.55,57.47,87,61.05ZM53.77,79.41c-5.36,4.17-10.71,8.24-16,12.46a5,5,0,0,0-.88,6.77,5.08,5.08,0,0,0,6.45,1.63,4.19,4.19,0,0,0,1.52-1c4.21-5.32,8.37-10.67,12.62-16.1ZM83.08,57.48c1.07-.82,2.15-1.64,3.23-2.48,4.14-3.21,8.31-6.38,12.41-9.65a5.12,5.12,0,0,0,.69-7.62,5,5,0,0,0-7.48,0c-4.27,5.28-8.39,10.69-12.55,16Z"/><path d="M132.15,81.66l3.21,3.3-3.46,3.38-3.16-3.68Z"/><path d="M5.1,48.87,8.29,52.1,4.88,55.41,1.69,52.06Z"/></g></g></svg>