<svg xmlns="http://www.w3.org/2000/svg" viewBox="0 0 226.91 238.96"><g id="Layer_2" data-name="Layer 2"><g id="Layer_1-2" data-name="Layer 1"><path d="M124.28,105.24l-3.63-3.7c-3.17,4.07-6.36,8.14-9.51,12.25-4.47,5.84-10.09,10.07-17.3,11.77-12,2.84-22.39-.28-30.81-9.33-10.13-10.88-10.41-28.62-.65-40.18l3.39,2.78c-1.62,3.73-3.57,7.06-4.55,10.65-4,14.68,6.35,29.82,21.45,31.66,9,1.1,16.71-1.67,22.64-8.56,4.08-4.72,7.77-9.76,11.75-14.8l-3.85-3.36-2.67,3.37c-3.09,3.93-6,8-9.28,11.77-6,7-15.75,8.74-24.26,4.6A20.51,20.51,0,0,1,65.82,92.07a21.1,21.1,0,0,1,8.12-13c4.52-3.53,9.07-7,13.69-10.6L84,65.08l-1.48,1.36c-6.67,6.22-15.11,6.36-21.86.23-2.49-2.26-4.76-4.78-7.28-7.34L57.22,56l6.13,6.11c5.42,5.41,12.14,5.05,16.93-.85-1.2-1.24-2.4-2.47-3.72-3.81l-6.2,4.79-3.15-4c.53-.45,1-.88,1.45-1.24,10.5-7.8,19.08-17.64,28.15-26.91,4.82-4.93,8.37-11.07,13-16.2C120.23,2.5,133.31-2.13,148.56.91,179.09,7,191.93,43.2,172.29,67.34c-.24.28-.51.54-.85.89l-3.65-3.17c1.56-2.47,3.26-4.72,4.51-7.21,6.21-12.4,5.8-24.75-1.73-36.32S152.06,4.68,138.36,5.35a33.56,33.56,0,0,0-24.46,11.8c-4.09,4.7-7.8,9.72-11.68,14.59l3.66,3.71c2.4-3.08,4.79-6.1,7.13-9.17,3.23-4.23,6.54-8.35,11.14-11.25,19.7-12.45,45.84,1,47.16,24.23A31,31,0,0,1,164.26,61l-4-3.28a26.5,26.5,0,0,0,5.79-13.95A25.54,25.54,0,0,0,143.9,15.79c-9.39-1.17-17.11,2-23.14,9.11-3.86,4.58-7.42,9.41-11.2,14.24l3.73,3.53c3.62-4.65,7.16-9.41,10.91-14,5.3-6.49,12.2-9.31,20.46-7.57s13.7,6.88,15.76,15-.3,15.36-6.82,20.86c-4.35,3.66-8.93,7-13.41,10.54-.38.3-.75.62-1.16,1l3.48,3.2a47.22,47.22,0,0,1,4.6-3.61,14.61,14.61,0,0,1,17.45,1.09c3.07,2.51,5.79,5.46,8.63,8.17L169.48,81c-1.88-1.85-4-3.68-5.82-5.8-4.69-5.58-12.55-5.84-17.55.54l3.69,3.86,6.44-4.92c1,1.31,2,2.6,3.11,4-.43.38-.73.69-1.07.94-10.58,7.8-19.15,17.73-28.34,27-4.19,4.23-7.45,9.39-11.17,14.09A41.46,41.46,0,0,1,94.61,136c-23.5,5.21-47-11.71-49.48-35.67a41.12,41.12,0,0,1,8.43-29.89c.3-.39.63-.77,1-1.14a6.14,6.14,0,0,1,.62-.54l3.59,3.12c-1.61,2.55-3.31,4.87-4.62,7.38C43.22,100,55.23,125.89,78.18,130.8c13.75,2.93,25.49-1.11,34.88-11.44C117.12,114.9,120.6,109.91,124.28,105.24Zm21.23-22.16L98.86,36.43,81.26,53.89l46.66,46.65Zm-54.15-11c-5.18,4-10.27,7.87-15.19,11.91a15.37,15.37,0,1,0,21.7,21.6c3.76-4.59,7.32-9.34,11-14a6.24,6.24,0,0,0,.53-.8l-3.48-3.7-1.56,2c-3.64,4.61-7.14,9.33-11,13.78a9.75,9.75,0,0,1-12.47,1.8C74.4,100.8,74,92.2,80.09,87.3c4.54-3.63,9.16-7.14,13.75-10.71.36-.28.68-.63,1-1Zm40.47-11,3.44,3.78,14.19-11c.49-.39,1-.8,1.43-1.22a15.37,15.37,0,0,0,.53-22.25c-5.85-6-16.33-6.15-21.85.1-4.5,5.08-8.46,10.64-12.69,16,1.24,1.24,2.38,2.37,3.66,3.63l1.86-2.34c3.51-4.47,6.9-9,10.56-13.39,3.33-4,8.8-4.55,13.26-1.77a10,10,0,0,1,3.69,12.52,15.41,15.41,0,0,1-4.07,5C141.24,53.89,136.43,57.47,131.83,61.05ZM98.65,79.41c-5.36,4.17-10.71,8.24-16,12.46a5,5,0,0,0-.88,6.77,5.08,5.08,0,0,0,6.45,1.63,4.1,4.1,0,0,0,1.52-1c4.21-5.32,8.38-10.67,12.62-16.1ZM128,57.48c1.07-.82,2.15-1.64,3.23-2.48,4.14-3.21,8.32-6.38,12.41-9.65a5.12,5.12,0,0,0,.69-7.62,5,5,0,0,0-7.48,0c-4.27,5.28-8.39,10.69-12.55,16Z"/><path d="M41.15,179.71C35.18,186,29.6,191.89,24,197.84l21,25.27c-4.1,0-7.76-.2-11.39.07-2.73.2-4.43-.75-6.09-2.88-3.67-4.72-7.64-9.21-11.56-13.88-1.86,1.46-3,3-2.84,5.49.24,3.66.07,7.34.07,11.11H0v-58.7H13.12V192.9c.72-.66,1.12-1,1.45-1.35,3.25-3.55,6.44-7.14,9.75-10.63a4,4,0,0,1,2.51-1.16C31.43,179.65,36,179.71,41.15,179.71Z"/><path d="M64,179.85v6.25c2.06-1.7,4-3.82,6.33-5.13,8-4.46,20.51-1.12,22.87,11.93a30.43,30.43,0,0,1,.47,5.22c0,7.87,0,15.73,0,23.6,0,.38,0,.75-.09,1.25H80.51v-2c0-6.87,0-13.74,0-20.61a32.43,32.43,0,0,0-.45-5.21,5.32,5.32,0,0,0-5.55-4.56c-5.4-.1-10.52,4.92-10.52,10.3V223H51V179.85Z"/><path d="M176.69,179.65c4.21,0,8.15-.06,12.08.07.54,0,1.27.83,1.55,1.44,3.53,7.92,7,15.86,10.49,23.8.29.67.6,1.33,1.05,2.33.87-2,1.63-3.68,2.36-5.38,3-6.93,6-13.84,9-20.79a2,2,0,0,1,2.17-1.51c3.78.09,7.57,0,11.55,0-.29.75-.46,1.27-.68,1.77q-12.51,27.92-25,55.85a2.39,2.39,0,0,1-2.63,1.69c-3.67-.11-7.33,0-11.27,0,.51-1.13.9-2,1.31-2.92,1.84-4,3.59-8.11,5.58-12.06a4.88,4.88,0,0,0,.06-4.69c-5.62-12.44-11.15-24.94-16.7-37.42C177.32,181.22,177.08,180.59,176.69,179.65Z"/><path d="M127.63,190.57h-6V179.73h5.95v-10h13.16v10h9.21v10.88h-9.15v5c0,4.18,0,8.37,0,12.55,0,2.85,1.27,4,4.08,3.84,1.68-.09,3.34-.34,5.26-.54,0,3.28,0,6.62-.06,9.95,0,.41-.67,1.06-1.14,1.18-4.54,1.11-9.12,1.57-13.68.2s-6.54-4.84-7.16-9.18a68.39,68.39,0,0,1-.47-8.59C127.58,200.29,127.63,195.55,127.63,190.57Z"/><path d="M170.19,223H157.27V164.35h12.92Z"/><path d="M114.67,179.79V223H101.78V179.79Z"/><path d="M114.68,175.16H101.74V164.35h12.94Z"/><path d="M177,81.66l3.21,3.3-3.46,3.38-3.16-3.68Z"/><path d="M50,48.87l3.19,3.23-3.4,3.31-3.2-3.35Z"/></g></g></svg>